<svg version="1.1" width="129.701" height="40" viewBox="0 0 129.701 40" xmlns="http://www.w3.org/2000/svg" xmlns:xlink="http://www.w3.org/1999/xlink" id="KR" overflow="hidden"><g><g><path d=" M 120.171 0 L 9.53468 0 C 9.16798 0 8.80568 0 8.43995 0.002 C 8.1338 0.004 7.83009 0.00981 7.521 0.0147 C 6.84951 0.022602 6.17961 0.0816764 5.5171 0.19141 C 4.85552 0.303533 4.21467 0.514916 3.61622 0.81841 C 3.0185 1.12447 2.47234 1.52217 1.99757 1.99707 C 1.5203 2.47064 1.12246 3.01802 0.81935 3.61816 C 0.5154 4.21711 0.30464 4.85894 0.19435 5.52148 C 0.0830108 6.18319 0.0230982 6.85252 0.0151498 7.52348 C 0.00587 7.83008 0.00489 8.1377 0 8.44434 L 0 31.5586 C 0.00489 31.8691 0.00587 32.1699 0.01515 32.4805 C 0.0231007 33.1514 0.0830133 33.8207 0.19435 34.4824 C 0.304336 35.1453 0.515108 35.7875 0.81935 36.3867 C 1.12233 36.9849 1.52022 37.5301 1.99757 38.001 C 2.47054 38.478 3.01705 38.876 3.61622 39.1797 C 4.21467 39.484 4.85545 39.6966 5.5171 39.8105 C 6.17972 39.9194 6.84956 39.9785 7.521 39.9873 C 7.83009 39.9941 8.1338 39.998 8.43995 39.998 C 8.80567 40 9.168 40 9.53468 40 L 120.171 40 C 120.53 40 120.896 40 121.255 39.998 C 121.56 39.998 121.872 39.9941 122.177 39.9873 C 122.847 39.9789 123.516 39.9198 124.177 39.8105 C 124.841 39.6958 125.484 39.4833 126.085 39.1797 C 126.684 38.8758 127.23 38.4779 127.702 38.001 C 128.178 37.5282 128.577 36.9835 128.884 36.3867 C 129.186 35.7871 129.395 35.1449 129.503 34.4824 C 129.615 33.8206 129.677 33.1515 129.689 32.4805 C 129.693 32.1699 129.693 31.8691 129.693 31.5586 C 129.7 31.1953 129.7 30.834 129.7 30.4648 L 129.7 9.53613 C 129.7 9.16992 129.7 8.80664 129.693 8.44434 C 129.693 8.1377 129.693 7.83008 129.689 7.52344 C 129.677 6.85242 129.615 6.18324 129.503 5.52144 C 129.394 4.85928 129.186 4.2175 128.884 3.61812 C 128.267 2.4152 127.288 1.43603 126.085 0.81832 C 125.484 0.515567 124.841 0.30424 124.177 0.19132 C 123.516 0.0811026 122.847 0.0220076 122.177 0.01456 C 121.872 0.00968 121.56 0.00382 121.255 0.00187 C 120.896 0 120.531 0 120.171 0 Z" fill="#A6A6A6"/><path d=" M 8.44483 39.125 C 8.14015 39.125 7.84283 39.1211 7.54054 39.1143 C 6.91432 39.1061 6.28957 39.0516 5.6714 38.9512 C 5.09499 38.8519 4.5366 38.6673 4.01466 38.4033 C 3.4975 38.1415 3.02581 37.7983 2.61766 37.3867 C 2.2036 36.98 1.85888 36.5082 1.59715 35.9902 C 1.33254 35.4688 1.14941 34.9099 1.05415 34.333 C 0.951274 33.7131 0.895614 33.0863 0.88765 32.458 C 0.88131 32.2471 0.87301 31.5449 0.87301 31.5449 L 0.87301 8.44434 C 0.87301 8.44434 0.88185 7.75293 0.8877 7.5498 C 0.895326 6.92248 0.950662 6.29665 1.05323 5.67773 C 1.14867 5.09925 1.33194 4.53875 1.59669 4.01563 C 1.85745 3.49794 2.20026 3.02586 2.61183 2.61768 C 3.02293 2.20562 3.49613 1.8606 4.01417 1.59521 C 4.53491 1.33209 5.09225 1.14873 5.66749 1.05127 C 6.28769 0.949837 6.91461 0.894996 7.543 0.88721 L 8.44532 0.875 L 121.251 0.875 L 122.164 0.8877 C 122.787 0.895099 123.408 0.94945 124.022 1.05029 C 124.604 1.14898 125.167 1.33362 125.693 1.59814 C 126.731 2.13299 127.576 2.97916 128.108 4.01807 C 128.369 4.53758 128.549 5.09351 128.644 5.66699 C 128.747 6.29099 128.805 6.92174 128.817 7.5542 C 128.82 7.8374 128.82 8.1416 128.82 8.44434 C 128.828 8.81934 128.828 9.17627 128.828 9.53613 L 128.828 30.4648 C 128.828 30.8281 128.828 31.1826 128.82 31.54 C 128.82 31.8652 128.82 32.1631 128.816 32.4697 C 128.805 33.0909 128.748 33.7104 128.646 34.3232 C 128.552 34.9043 128.37 35.4675 128.106 35.9932 C 127.842 36.5056 127.499 36.9733 127.09 37.3789 C 126.681 37.7927 126.209 38.1379 125.691 38.4014 C 125.165 38.6674 124.603 38.8527 124.023 38.9512 C 123.404 39.0522 122.78 39.1067 122.153 39.1143 C 121.86 39.1211 121.554 39.125 121.256 39.125 L 120.172 39.127 Z"/></g><g><path d=" M 37.9268 25.2842 L 35.4131 25.2842 L 35.4131 28.7735 C 36.4521 28.7928 37.4907 28.7163 38.5156 28.5449 L 38.6079 29.2969 C 37.4276 29.481 36.2341 29.5676 35.0396 29.5557 L 34.4947 29.5557 L 34.4947 24.5234 L 37.9268 24.5234 Z M 40.0142 26.6856 L 41.0997 26.6856 L 41.0997 27.4512 L 40.0142 27.4512 L 40.0142 31.2959 L 39.0869 31.2959 L 39.0869 23.8203 L 40.0142 23.8203 Z" fill="#FFFFFF"/><path d=" M 48.5547 27.5039 L 48.5547 28.2422 L 45.6983 28.2422 L 45.6983 29.6523 L 44.7623 29.6523 L 44.7623 28.2422 L 41.7959 28.2422 L 41.7959 27.5039 Z M 42.5825 25.5303 C 42.5825 24.6641 43.5889 24.0361 45.1797 24.0361 C 46.7705 24.0361 47.7857 24.6641 47.7857 25.5303 C 47.7857 26.4092 46.7706 27.0371 45.1885 27.0371 C 43.5889 27.0371 42.5825 26.4092 42.5825 25.5303 Z M 43.5537 30.3594 L 47.7769 30.3594 L 47.7769 31.0938 L 42.6353 31.0938 L 42.6353 28.9667 L 43.5537 28.9667 Z M 43.5274 25.5391 C 43.5274 26.0176 44.2261 26.3262 45.1753 26.3262 C 46.1553 26.3262 46.832 26.0176 46.832 25.5391 C 46.832 25.0508 46.1597 24.7393 45.1797 24.7393 C 44.2261 24.7393 43.5274 25.0508 43.5274 25.5391 Z" fill="#FFFFFF"/><path d=" M 56.1543 29.6133 L 56.1543 30.3516 L 49.3955 30.3516 L 49.3955 29.6133 L 52.3091 29.6133 L 52.3091 28.3955 L 50.2612 28.3955 L 50.2612 25.9434 L 54.3613 25.9434 L 54.3613 25.0332 L 50.2481 25.0332 L 50.2481 24.291 L 55.2974 24.291 L 55.2974 26.6904 L 51.1841 26.6904 L 51.1841 27.6572 L 55.4864 27.6572 L 55.4864 28.3955 L 53.232 28.3955 L 53.232 29.6133 Z" fill="#FFFFFF"/><path d=" M 63.7544 30.3027 L 56.9956 30.3027 L 56.9956 29.5644 L 63.7544 29.5644 Z M 62.8843 25.2011 L 58.7842 25.2011 L 58.7842 27.2578 L 62.9414 27.2578 L 62.9414 28.0039 L 57.8701 28.0039 L 57.8701 24.4531 L 62.8843 24.4531 Z" fill="#FFFFFF"/><path d=" M 71.1753 26.3564 L 66.8159 26.3564 L 66.8159 25.623 L 71.1753 25.623 Z M 69.0347 29.877 C 68.1583 29.7674 67.5367 28.968 67.6463 28.0916 C 67.7559 27.2151 68.5553 26.5935 69.4317 26.7032 C 70.232 26.8033 70.8325 27.4835 70.8325 28.29 C 70.8111 29.1922 70.0623 29.9062 69.1601 29.8848 C 69.1182 29.8838 69.0764 29.8812 69.0347 29.877 Z M 70.1646 25.0557 L 67.897 25.0557 L 67.897 24.3047 L 70.1646 24.3047 Z M 69.0347 29.1465 C 69.509 29.1761 69.9175 28.8155 69.9471 28.3412 C 69.9766 27.8668 69.6161 27.4583 69.1417 27.4288 C 69.1061 27.4265 69.0703 27.4265 69.0347 27.4288 C 68.5603 27.411 68.1614 27.7811 68.1436 28.2554 C 68.1258 28.7298 68.4959 29.1287 68.9702 29.1465 C 68.9917 29.1473 69.0132 29.1473 69.0347 29.1465 Z M 72.6909 26.9102 L 73.7632 26.9102 L 73.7632 27.67 L 72.6909 27.67 L 72.6909 31.296 L 71.769 31.296 L 71.769 23.8252 L 72.6909 23.8252 Z" fill="#FFFFFF"/><path d=" M 74.9956 29.9375 L 74.4731 29.2129 C 76.0559 28.534 77.1691 27.0776 77.4087 25.3721 L 74.8902 25.3721 L 74.8902 24.6074 L 78.3931 24.6074 C 78.3718 26.8873 77.0533 28.9557 74.9956 29.9375 Z M 80.6382 31.3008 L 79.7114 31.3008 L 79.7114 23.8203 L 80.6382 23.8203 Z" fill="#FFFFFF"/></g><g><path d=" M 41.1602 16.5542 L 37.1152 16.5542 L 36.1445 19.4224 L 34.4307 19.4224 L 38.2627 8.80906 L 40.042 8.80906 L 43.874 19.4224 L 42.1309 19.4224 Z M 37.5342 15.23 L 40.7412 15.23 L 39.1592 10.5747 L 39.1152 10.5747 Z" fill="#FFFFFF"/><path d=" M 52.1641 15.5542 C 52.1641 17.9585 50.877 19.5034 48.9356 19.5034 C 47.9317 19.5563 46.9859 19.0305 46.501 18.1499 L 46.4649 18.1499 L 46.4649 21.9819 L 44.876 21.9819 L 44.876 11.6851 L 46.4131 11.6851 L 46.4131 12.9722 L 46.4424 12.9722 C 46.9488 12.0969 47.8956 11.5711 48.9063 11.604 C 50.8701 11.604 52.1641 13.1558 52.1641 15.5542 Z M 50.5313 15.5542 C 50.5313 13.9868 49.7227 12.9575 48.4873 12.9575 C 47.2735 12.9575 46.4571 14.0093 46.4571 15.5542 C 46.4571 17.1128 47.2735 18.1577 48.4873 18.1577 C 49.7227 18.1577 50.5313 17.1353 50.5313 15.5542 Z" fill="#FFFFFF"/><path d=" M 60.6953 15.5542 C 60.6953 17.9585 59.4082 19.5034 57.4668 19.5034 C 56.4629 19.5563 55.5171 19.0305 55.0322 18.1499 L 54.9961 18.1499 L 54.9961 21.9819 L 53.4072 21.9819 L 53.4072 11.6851 L 54.9443 11.6851 L 54.9443 12.9722 L 54.9736 12.9722 C 55.48 12.0969 56.4268 11.5711 57.4375 11.604 C 59.4014 11.604 60.6953 13.1558 60.6953 15.5542 Z M 59.0625 15.5542 C 59.0625 13.9868 58.2539 12.9575 57.0185 12.9575 C 55.8047 12.9575 54.9883 14.0093 54.9883 15.5542 C 54.9883 17.1128 55.8047 18.1577 57.0185 18.1577 C 58.2539 18.1577 59.0625 17.1353 59.0625 15.5542 Z" fill="#FFFFFF"/><path d=" M 66.354 16.4653 C 66.4722 17.5171 67.4937 18.2085 68.8911 18.2085 C 70.23 18.2085 71.1938 17.517 71.1938 16.5688 C 71.1938 15.7446 70.6128 15.2524 69.2368 14.9135 L 67.8618 14.5825 C 65.9126 14.1118 65.0083 13.2007 65.0083 11.7221 C 65.0083 9.89109 66.604 8.63327 68.8697 8.63327 C 71.1128 8.63327 72.6499 9.89108 72.7017 11.7221 L 71.0982 11.7221 C 71.0025 10.6626 70.1275 10.0229 68.8472 10.0229 C 67.5679 10.0229 66.6929 10.6704 66.6929 11.6118 C 66.6929 12.3618 67.2515 12.8032 68.6197 13.1411 L 69.7886 13.4282 C 71.9654 13.9429 72.8706 14.8179 72.8706 16.3706 C 72.8706 18.3559 71.2896 19.5991 68.7739 19.5991 C 66.4204 19.5991 64.832 18.3852 64.7295 16.4653 Z" fill="#FFFFFF"/><path d=" M 76.2993 9.854 L 76.2993 11.6851 L 77.77 11.6851 L 77.77 12.9429 L 76.2993 12.9429 L 76.2993 17.2085 C 76.2993 17.8706 76.5932 18.1792 77.2407 18.1792 C 77.4151 18.1765 77.5891 18.1645 77.7622 18.1431 L 77.7622 19.3931 C 77.4715 19.4472 77.176 19.4717 76.8803 19.4663 C 75.313 19.4663 74.7026 18.8784 74.7026 17.3774 L 74.7026 12.9429 L 73.5776 12.9429 L 73.5776 11.6851 L 74.7026 11.6851 L 74.7026 9.854 Z" fill="#FFFFFF"/><path d=" M 78.6402 15.5542 C 78.6402 13.1196 80.0738 11.5894 82.3101 11.5894 C 84.5533 11.5894 85.98 13.1196 85.98 15.5542 C 85.98 17.9956 84.5611 19.5181 82.3101 19.5181 C 80.0592 19.5181 78.6402 17.9956 78.6402 15.5542 Z M 84.3619 15.5542 C 84.3619 13.8843 83.5972 12.8989 82.3101 12.8989 C 81.023 12.8989 80.2584 13.8911 80.2584 15.5542 C 80.2584 17.231 81.023 18.2085 82.3101 18.2085 C 83.5972 18.2085 84.3618 17.231 84.3618 15.5542 Z" fill="#FFFFFF"/><path d=" M 87.2906 11.6851 L 88.8052 11.6851 L 88.8052 13.0015 L 88.8423 13.0015 C 89.0532 12.1539 89.8299 11.5705 90.7027 11.604 C 90.886 11.6029 91.0689 11.6228 91.2476 11.6636 L 91.2476 13.1489 C 91.0164 13.0784 90.7753 13.0461 90.5338 13.0532 C 89.6512 13.0172 88.9065 13.7034 88.8705 14.586 C 88.8671 14.6683 88.8701 14.7507 88.8795 14.8325 L 88.8794 19.4224 L 87.2906 19.4224 Z" fill="#FFFFFF"/><path d=" M 98.5698 17.1499 C 98.2089 18.6623 96.7848 19.6745 95.2378 19.5181 C 92.9878 19.5181 91.5903 18.0103 91.5903 15.5903 C 91.5903 13.1636 92.9946 11.5893 95.1723 11.5893 C 97.312 11.5893 98.6577 13.06 98.6577 15.4067 L 98.6577 15.9507 L 93.1939 15.9507 L 93.1939 16.0464 C 93.0955 17.1546 93.9141 18.1328 95.0223 18.2312 C 95.1063 18.2387 95.1907 18.2409 95.2749 18.2378 C 96.0456 18.3101 96.7723 17.8677 97.062 17.1499 Z M 93.2007 14.8403 L 97.0698 14.8403 C 97.1266 13.8137 96.3404 12.9356 95.3138 12.8789 C 95.2667 12.8763 95.2195 12.8754 95.1724 12.8764 C 94.0901 12.8698 93.2074 13.7417 93.2007 14.824 C 93.2007 14.8294 93.2007 14.8349 93.2007 14.8403 Z" fill="#FFFFFF"/><path d=" M 105.087 8.98779 L 106.325 8.98779 L 106.325 18.9165 L 105.087 18.9165 L 105.087 13.9048 L 104.18 13.9048 C 104.066 15.6753 103.348 17.2144 101.896 17.2144 C 100.301 17.2144 99.5938 15.3628 99.5938 13.3862 C 99.5938 11.4087 100.301 9.59524 101.896 9.59524 C 103.316 9.59524 104.035 11.0337 104.173 12.7476 L 105.087 12.7476 Z M 102.979 13.3862 C 102.979 11.9282 102.628 10.8149 101.896 10.8149 C 101.183 10.8149 100.858 11.9282 100.858 13.3862 C 100.858 14.8501 101.183 15.9507 101.896 15.9507 C 102.628 15.9507 102.979 14.8501 102.979 13.3862 Z M 108.489 8.7749 L 108.489 19.4165 L 107.251 19.4165 L 107.251 8.7749 Z" fill="#FFFFFF"/><path d=" M 114.087 11.271 C 113.998 13.1851 115.021 14.9788 116.715 15.8755 L 115.945 16.8706 C 114.808 16.224 113.921 15.2153 113.424 14.0054 C 112.973 15.3222 112.069 16.4356 110.872 17.146 L 110.059 16.1821 C 111.787 15.1852 112.815 13.308 112.725 11.3149 L 112.725 9.66943 L 114.088 9.66943 Z M 119.073 19.4165 L 117.747 19.4165 L 117.747 13.5669 L 115.613 13.5669 L 115.613 12.4478 L 117.747 12.4478 L 117.747 8.7749 L 119.073 8.7749 Z" fill="#FFFFFF"/></g><g id="_Group_"><g id="_Group_2"><path d=" M 24.7689 20.3007 C 24.7908 18.6042 25.6801 17.0372 27.1255 16.1486 C 26.2095 14.8405 24.7304 14.0409 23.1343 13.991 C 21.4551 13.8147 19.8271 14.9958 18.9714 14.9958 C 18.0991 14.9958 16.7816 14.0085 15.3629 14.0377 C 13.4962 14.098 11.7982 15.1335 10.89 16.7655 C 8.95598 20.1139 10.3986 25.035 12.2512 27.7416 C 13.1781 29.067 14.2614 30.5474 15.6788 30.4949 C 17.0659 30.4374 17.5839 29.6104 19.2582 29.6104 C 20.917 29.6104 21.403 30.4949 22.8492 30.4615 C 24.3376 30.4374 25.2753 29.1303 26.1697 27.7924 C 26.8357 26.848 27.3482 25.8043 27.6881 24.6999 C 25.9204 23.9522 24.771 22.2201 24.7689 20.3007 Z" id="_Path_" fill="#FFFFFF"/><path d=" M 22.0373 12.2109 C 22.8488 11.2367 23.2486 9.98451 23.1518 8.72028 C 21.912 8.8505 20.7667 9.44306 19.9442 10.3799 C 19.1321 11.3042 18.7206 12.5134 18.8005 13.7413 C 20.057 13.7542 21.25 13.1902 22.0373 12.2109 Z" id="_Path_2" fill="#FFFFFF"/></g></g></g></svg>